<?xml version="1.0" encoding="UTF-8"?><svg xmlns="http://www.w3.org/2000/svg" viewBox="0 0 500 500"><g id="P"><path d="M203.89,368.92V60.97h101.56c21.19,0,40.51,3.1,57.95,9.3,17.44,6.2,31.4,16.61,41.86,31.21,10.47,14.61,15.7,34.59,15.7,59.94s-5.23,44.16-15.7,59.73c-10.47,15.57-24.36,27.08-41.67,34.52-17.31,7.44-36.18,11.16-56.59,11.16h-33.72v102.1h-69.38ZM273.27,208.54h30.23c16.8,0,29.33-4.06,37.6-12.19,8.27-8.13,12.4-19.77,12.4-34.93s-4.46-26.25-13.37-32.45c-8.91-6.2-21.77-9.3-38.57-9.3h-28.3v88.87Z" style="fill:#8fc31f;"/></g><g id="V"><path d="M321.63,189.5l16.87-61.6-.22-.04.02-.08c-8.81-5.41-21.06-8.11-36.74-8.11h-6.18v.03s-.14-.03-.14-.03l-27.52,116.81c-4.68,16.98-7.79,30.42-10.6,43.46-2.82,13.05-6.03,26.71-9.65,41h-1.51c-3.42-14.29-6.48-27.95-9.19-41-2.71-13.04-5.88-26.48-9.49-40.32l-29.24-122.83h-47.02l68.12,252.13h53.35l44.19-161.36s.05,0,.07,0l4.88-18.05Z" style="fill:#e60012;"/></g><g id="logoText"><rect x="84.32" y="368.92" width="320.89" height="70.11" style="fill:none;"/><path d="M101.71,430.62l-16.9-50.9h2.73l9.82,30.43c.98,3.13,1.88,5.99,2.7,8.59.82,2.59,1.76,5.46,2.84,8.59h.28c1.07-3.13,2.02-5.99,2.84-8.59.82-2.59,1.74-5.46,2.77-8.59l9.75-30.43h2.66l-16.83,50.9h-2.66Z" style="fill:#e60012;"/><path d="M141.74,431.53c-3.08,0-5.91-.77-8.48-2.31-2.57-1.54-4.62-3.75-6.13-6.62-1.52-2.88-2.28-6.32-2.28-10.34,0-3.04.43-5.75,1.3-8.13.86-2.38,2.06-4.43,3.58-6.13,1.52-1.71,3.22-3,5.12-3.89,1.89-.89,3.87-1.33,5.92-1.33,2.85,0,5.32.66,7.4,1.96,2.08,1.31,3.69,3.24,4.84,5.78,1.15,2.55,1.72,5.64,1.72,9.29v1.16c0,.4-.05.85-.14,1.37h-27.06c0,3.23.6,6.11,1.79,8.66,1.19,2.55,2.86,4.56,5.01,6.03,2.15,1.47,4.67,2.21,7.57,2.21,2.1,0,3.97-.3,5.61-.91,1.64-.61,3.15-1.43,4.56-2.45l1.12,2.17c-1.4.84-2.97,1.64-4.7,2.38-1.73.75-3.97,1.12-6.73,1.12ZM127.51,410h24.75c0-5-1.05-8.74-3.15-11.22-2.1-2.48-4.88-3.72-8.34-3.72-2.2,0-4.25.6-6.17,1.79-1.92,1.19-3.51,2.9-4.77,5.12-1.26,2.22-2.03,4.9-2.31,8.03Z" style="fill:#e60012;"/><path d="M178.34,431.53c-3.13,0-5.95-.76-8.45-2.28-2.5-1.52-4.48-3.72-5.92-6.59-1.45-2.88-2.17-6.35-2.17-10.41s.77-7.69,2.31-10.59c1.54-2.9,3.58-5.11,6.1-6.62s5.26-2.28,8.2-2.28c2.52,0,4.65.48,6.38,1.44,1.73.96,3.2,2.02,4.42,3.19l-1.61,1.82c-1.22-1.17-2.57-2.15-4.07-2.94-1.5-.79-3.2-1.19-5.12-1.19-2.62,0-4.98.73-7.08,2.17-2.1,1.45-3.77,3.46-5.01,6.03-1.24,2.57-1.86,5.56-1.86,8.97s.58,6.32,1.75,8.87c1.17,2.55,2.79,4.53,4.87,5.96,2.08,1.43,4.52,2.14,7.33,2.14,2.06,0,3.95-.43,5.68-1.3s3.25-1.9,4.56-3.12l1.47,1.82c-1.54,1.36-3.3,2.51-5.26,3.47-1.96.96-4.14,1.44-6.52,1.44Z" style="fill:#e60012;"/><path d="M199.86,430.62v-50.9h12.27c3.88,0,7.17.46,9.88,1.37s4.78,2.37,6.21,4.38c1.42,2.01,2.14,4.72,2.14,8.13s-.7,5.98-2.1,8.13c-1.4,2.15-3.44,3.76-6.1,4.84-2.66,1.08-5.91,1.61-9.75,1.61h-9.96v22.43h-2.59ZM202.45,405.87h9.04c5.42,0,9.45-.95,12.09-2.84,2.64-1.89,3.96-5.04,3.96-9.43s-1.34-7.48-4.03-9.11c-2.69-1.64-6.79-2.45-12.3-2.45h-8.76v23.84Z" style="fill:#22ac38;"/><path d="M252.58,431.53c-2.94,0-5.67-.76-8.17-2.28-2.5-1.52-4.5-3.72-5.99-6.59-1.5-2.88-2.24-6.35-2.24-10.41s.75-7.69,2.24-10.59c1.5-2.9,3.49-5.11,5.99-6.62,2.5-1.52,5.22-2.28,8.17-2.28,2.2,0,4.29.43,6.27,1.3,1.99.87,3.74,2.13,5.26,3.79,1.52,1.66,2.71,3.71,3.58,6.13.86,2.43,1.3,5.19,1.3,8.27,0,4.07-.76,7.54-2.28,10.41-1.52,2.87-3.52,5.07-5.99,6.59-2.48,1.52-5.19,2.28-8.13,2.28ZM252.58,429.21c2.62,0,4.97-.71,7.05-2.14,2.08-1.43,3.73-3.41,4.94-5.96,1.22-2.55,1.82-5.5,1.82-8.87s-.61-6.4-1.82-8.97c-1.22-2.57-2.86-4.58-4.94-6.03-2.08-1.45-4.43-2.17-7.05-2.17s-4.97.73-7.05,2.17c-2.08,1.45-3.72,3.46-4.91,6.03-1.19,2.57-1.79,5.56-1.79,8.97s.6,6.32,1.79,8.87c1.19,2.55,2.83,4.53,4.91,5.96,2.08,1.43,4.43,2.14,7.05,2.14Z" style="fill:#22ac38;"/><path d="M289.18,431.53c-2.76,0-5.28-.5-7.57-1.51-2.29-1-4.25-2.18-5.89-3.54l1.61-2.03c1.54,1.31,3.25,2.43,5.12,3.37,1.87.94,4.16,1.4,6.87,1.4,3.08,0,5.41-.77,6.98-2.31,1.57-1.54,2.35-3.37,2.35-5.47,0-1.64-.47-2.99-1.4-4.07-.94-1.07-2.12-1.96-3.54-2.66-1.43-.7-2.86-1.31-4.31-1.82-1.87-.7-3.69-1.45-5.47-2.24-1.78-.79-3.25-1.85-4.42-3.15-1.17-1.31-1.75-3.01-1.75-5.12,0-1.73.44-3.32,1.33-4.77.89-1.45,2.2-2.62,3.93-3.51,1.73-.89,3.86-1.33,6.38-1.33,1.87,0,3.72.35,5.54,1.05,1.82.7,3.39,1.61,4.7,2.73l-1.47,1.89c-1.22-.93-2.52-1.73-3.93-2.38-1.4-.65-3.06-.98-4.98-.98-3.04,0-5.28.74-6.73,2.21-1.45,1.47-2.17,3.12-2.17,4.94,0,1.45.41,2.65,1.23,3.61.82.96,1.89,1.75,3.22,2.38,1.33.63,2.72,1.23,4.17,1.79,1.5.56,2.97,1.13,4.42,1.72,1.45.58,2.76,1.27,3.93,2.07,1.17.79,2.11,1.79,2.84,2.98.72,1.19,1.09,2.7,1.09,4.52s-.47,3.52-1.4,5.08c-.94,1.57-2.29,2.82-4.07,3.75-1.78.93-3.97,1.4-6.59,1.4Z" style="fill:#22ac38;"/><path d="M311.75,430.62v-50.9h2.59v48.59h23.84v2.31h-26.43Z" style="fill:#0b318f;"/><path d="M348.35,384.34c-.75,0-1.36-.26-1.82-.77-.47-.51-.7-1.21-.7-2.1,0-.79.23-1.44.7-1.93.47-.49,1.07-.74,1.82-.74.7,0,1.3.25,1.79.74s.74,1.13.74,1.93c0,.89-.25,1.59-.74,2.1-.49.51-1.09.77-1.79.77ZM347.02,430.62v-36.95h2.52v36.95h-2.52Z" style="fill:#0b318f;"/><path d="M378.01,431.53c-1.73,0-3.59-.42-5.57-1.26-1.99-.84-3.85-1.96-5.57-3.37h-.21l-.35,3.72h-2.1v-55.67h2.52v16.41l-.21,7.43c1.92-1.63,4-3.05,6.24-4.24,2.24-1.19,4.51-1.79,6.8-1.79,3.37,0,6.15.78,8.34,2.35,2.2,1.57,3.83,3.75,4.91,6.56s1.61,6.12,1.61,9.96c0,4.16-.76,7.74-2.28,10.73-1.52,2.99-3.52,5.27-5.99,6.83-2.48,1.57-5.19,2.35-8.13,2.35ZM378.22,429.21c2.62,0,4.94-.75,6.98-2.24,2.03-1.5,3.63-3.58,4.8-6.24,1.17-2.66,1.75-5.7,1.75-9.11,0-3.13-.41-5.95-1.23-8.45-.82-2.5-2.13-4.47-3.93-5.92-1.8-1.45-4.22-2.17-7.26-2.17-1.87,0-3.87.55-5.99,1.65-2.13,1.1-4.34,2.68-6.62,4.73v22.79c2.1,1.82,4.18,3.11,6.24,3.86,2.06.75,3.81,1.12,5.26,1.12Z" style="fill:#0b318f;"/></g></svg>