<?xml version="1.0" encoding="UTF-8"?>
<svg id="uuid-1246f800-d957-4677-a1b0-c41557b768a6" data-name="VecPosLib" xmlns="http://www.w3.org/2000/svg" viewBox="0 0 375 375">
    <path d="M375,0v375H0V0h375ZM154.19,215.57c-2.7-9.85-5.02-20.11-7.7-30.1-7.62-28.4-15.93-56.62-22.99-85.17h-33.68l50.18,166.88,39.56-.04,30.2-99.69c-.09-.87,1.21-1.72,1.31-2.03,36.49.26,65.53-20.46,62.9-59.54-2.08-30.97-24.98-44.15-53.52-46.78l-65.53.02-.74,156.44ZM253.47,278.54c-2.4.79-1.32,4.85,1.39,4.87,3.77.03,3.78-6.57-1.39-4.87ZM269.46,278.44h-4.49v30.69c2.99,1.27,3.95-1.5,4.2-1.54,2.83-.41,4.36,3.9,9.48,1.36,9.03-4.48,6.69-22.15-2.78-21.51-2.13.14-3.97,2.64-6.41,2.22v-11.23ZM98.81,303.9l-5.6-22.48-4.88-.72,8.3,28.36,6.21.12,8.69-28.49-4.58.43-5.91,22.77h-2.23ZM164.67,298.65c6.02.49,13.4,0,15.11-7.03,1.5-6.14-2.64-9.63-8.34-10.6-3.35-.57-9.32-1.12-12.02.79v27.32h5.24v-10.48ZM235.03,280.69h-5.24v28.44h17.22v-3.74h-11.98v-24.7ZM118.26,300.15h13.1c2.73,0,.65-12.68-7.47-12.75-3.04-.03-6.98,2.4-8.51,5.01-6.26,10.67,5.35,22.94,15.57,14.87l-.71-1.88c-5.41,1.61-11.62,1.72-11.97-5.24ZM152.68,288.96c-14.45-7.73-22.51,16.65-8.24,20.56,2.08.57,8.92-.19,8.97-2.25.08-3.21-3.55-1.08-5.58-1.07-3.6.02-5.2-1.43-5.62-4.92-.94-7.71,1.64-11.56,9.69-9.4l.79-2.92ZM192.18,287.56c-2.03.38-5.82,3.38-6.9,5.13-5.63,9.15,3.95,21.83,13.77,15.26s2.92-22.24-6.87-20.39ZM208.08,307.62c4.74,3.15,15.76,3.36,15.76-4.1,0-7-10.99-5.42-10.57-10.47.31-3.79,6.58-.85,8.27-1.49.78-.29,1.86-1.36.76-2.26-6.94-5.65-19.58,2.66-9.97,9.22,2.73,1.87,7.83,2.1,6.99,5.71-.14.59-.13,1.19-.71,1.57-2.88.69-6.23.78-8.67-1.1l-1.86,2.91ZM257.49,288.17h-5.24v20.96h5.24v-20.96Z" style="fill: transparent;"/>
    <path d="M211.08,165.42c-.09.3-1.4,1.15-1.31,2.03l-30.2,99.69-39.56.04-50.18-166.88h33.68c7.06,28.55,15.37,56.77,22.99,85.17,2.68,9.99,5,20.25,7.7,30.1,1.74,6.33,3.33,12.83,5.23,19.11.32,1.06-.47,1.33,1.5,1.1,9.51-33.76,17.36-68.06,26.96-101.79,3.06-10.75,7.08-22.68,10.48-33.68h32.19c-4.27,12.83-7.32,26.15-11.23,38.92-2.67,8.73-5.54,17.46-8.23,26.2Z" style="fill: #fe3131;"/>
    <path d="M154.19,215.57l.74-156.44,65.53-.02c28.54,2.63,51.44,15.81,53.52,46.78,2.62,39.08-26.41,59.79-62.9,59.54,2.69-8.74,5.56-17.47,8.23-26.2,9.77-1.29,18.34-6.67,21.5-16.3,2.77-8.42,2.88-25.47-5.09-31.21-.7-.5-1.92-.23-2.19-.4-11.73-7.3-17.47-5.53-30.69-5.99-.1,0-.85-.75-1.81-.78-4.63-.14-9.29.17-13.91.03l.75,49.41c-9.6,33.73-17.45,68.03-26.96,101.79-1.97.23-1.18-.04-1.5-1.1-1.9-6.28-3.49-12.78-5.23-19.11Z" style="fill: #7ed857;"/>
    <path d="M269.46,278.44v11.23c2.44.42,4.28-2.08,6.41-2.22,9.47-.64,11.81,17.03,2.78,21.51-5.12,2.54-6.65-1.77-9.48-1.36-.25.04-1.21,2.8-4.2,1.54v-30.69h4.49ZM273.01,291.3c-4.57.92-4.2,8.6-3.55,12.22s8.12,3.64,9.4-.33c1.48-4.58.97-13.27-5.85-11.89Z" style="fill: #5170fe;"/>
    <path d="M164.67,298.65v10.48h-5.24v-27.32c2.7-1.9,8.66-1.36,12.02-.79,5.7.97,9.84,4.46,8.34,10.6-1.72,7.03-9.1,7.52-15.11,7.03ZM164.67,284.43v10.48c2.83-.32,9.21,1.22,10.15-2.18,2.31-8.36-3.39-8.81-10.15-8.3Z" style="fill: #7cd356;"/>
    <polygon points="98.81 303.9 101.04 303.89 106.95 281.12 111.52 280.69 102.84 309.18 96.63 309.06 88.33 280.69 93.21 281.42 98.81 303.9" style="fill: #fe3131;"/>
    <path d="M192.18,287.56c9.79-1.85,16.86,13.71,6.87,20.39s-19.4-6.12-13.77-15.26c1.08-1.75,4.87-4.75,6.9-5.13ZM197.41,305.19c2.76-2.58,2.35-12.67-1.84-13.88-8.54-2.47-8.38,11.7-5.02,14.02,1.59,1.09,5.41,1.22,6.86-.13Z" style="fill: #7cd356;"/>
    <path d="M118.26,300.15c.35,6.95,6.57,6.85,11.97,5.24l.71,1.88c-10.22,8.07-21.82-4.2-15.57-14.87,1.53-2.6,5.47-5.03,8.51-5.01,8.13.07,10.2,12.75,7.47,12.75h-13.1ZM128,297.16c1.84-8.76-10.51-7.88-9.74,0h9.74Z" style="fill: #fe3131;"/>
    <polygon points="235.03 280.69 235.03 305.39 247.01 305.39 247.01 309.13 229.79 309.13 229.79 280.69 235.03 280.69" style="fill: #5170fe;"/>
    <path d="M208.08,307.62l1.86-2.91c2.44,1.88,5.79,1.79,8.67,1.1.58-.38.57-.98.71-1.57.84-3.61-4.26-3.84-6.99-5.71-9.61-6.57,3.04-14.88,9.97-9.22,1.1.9.02,1.96-.76,2.26-1.69.64-7.96-2.3-8.27,1.49-.41,5.05,10.57,3.47,10.57,10.47,0,7.47-11.02,7.26-15.76,4.1Z" style="fill: #7cd356;"/>
    <path d="M152.68,288.96l-.79,2.92c-8.05-2.16-10.63,1.69-9.69,9.4.43,3.49,2.02,4.94,5.62,4.92,2.03-.01,5.65-2.14,5.58,1.07-.05,2.06-6.88,2.83-8.97,2.25-14.27-3.91-6.21-28.29,8.24-20.56Z" style="fill: #fe3131;"/>
    <rect x="252.25" y="288.17" width="5.24" height="20.96" style="fill: #5170fe;"/>
    <path d="M253.47,278.54c5.17-1.7,5.16,4.9,1.39,4.87-2.71-.02-3.79-4.08-1.39-4.87Z" style="fill: #5170fe;"/>
    <path d="M219.31,139.22c3.91-12.77,6.96-26.1,11.23-38.92.99-2.98,2.34-5.89,2.99-8.98.27.17,1.49-.11,2.19.4,7.97,5.74,7.85,22.79,5.09,31.21-3.16,9.62-11.74,15.01-21.5,16.3Z" style="fill: transparent;"/>
    <path d="M233.53,91.32c-.66,3.1-2,6-2.99,8.98h-32.19c1.53-4.96,2.78-10.06,4.49-14.97,13.22.46,18.96-1.31,30.69,5.99Z" style="fill: #f53939;"/>
    <path d="M202.84,85.33c-1.71,4.91-2.96,10.01-4.49,14.97-3.4,11-7.42,22.93-10.48,33.68l-.75-49.41c4.62.14,9.29-.17,13.91-.03.97.03,1.71.78,1.81.78Z" style="fill: transparent;"/>
    <path d="M273.01,291.3c6.82-1.38,7.33,7.31,5.85,11.89-1.28,3.97-8.74,3.98-9.4.33s-1.02-11.3,3.55-12.22Z" style="fill: transparent;"/>
    <path d="M164.67,284.43c6.76-.5,12.46-.06,10.15,8.3-.94,3.4-7.31,1.86-10.15,2.18v-10.48Z" style="fill: transparent;"/>
    <path d="M197.41,305.19c-1.45,1.36-5.27,1.23-6.86.13-3.36-2.31-3.53-16.49,5.02-14.02,4.19,1.21,4.6,11.3,1.84,13.88Z" style="fill: transparent;"/>
    <path d="M128,297.16h-9.74c-.78-7.88,11.58-8.76,9.74,0Z" style="fill: transparent;"/>
</svg>