<?xml version="1.0" encoding="UTF-8"?><svg xmlns="http://www.w3.org/2000/svg" viewBox="0 0 500 500"><g id="P"><path d="M223.21,327.03V116.2h69.53c14.5,0,27.73,2.12,39.68,6.37,11.94,4.24,21.5,11.37,28.66,21.37,7.16,10,10.75,23.68,10.75,41.04s-3.58,30.24-10.75,40.89c-7.16,10.66-16.68,18.54-28.53,23.63-11.85,5.09-24.77,7.64-38.75,7.64h-23.09v69.9h-47.5ZM270.71,217.23h20.7c11.5,0,20.08-2.78,25.74-8.35,5.66-5.56,8.49-13.54,8.49-23.91s-3.05-17.97-9.16-22.22c-6.1-4.25-14.91-6.37-26.41-6.37h-19.37v60.85Z" style="fill:#8fc31f;"/></g><g id="V"><path d="M303.82,204.19l11.55-42.18-.15-.03v-.05c-6.02-3.7-14.4-5.55-25.14-5.55h-4.23v.02s-.1-.02-.1-.02l-18.84,79.98c-3.2,11.63-5.34,20.83-7.26,29.76-1.93,8.93-4.13,18.29-6.6,28.07h-1.03c-2.34-9.78-4.44-19.14-6.29-28.07-1.86-8.93-4.02-18.13-6.5-27.6l-20.02-84.1h-32.19l46.64,172.62h36.53l30.26-110.48s.03,0,.05,0l3.34-12.36Z" style="fill:#e60012;"/></g><g id="logoText"><text transform="translate(154.96 369.27)" style="font-family:NotoSansJP-Thin, &apos;Noto Sans JP&apos;; font-size:48px; font-variation-settings:&apos;wght&apos; 100; font-weight:200;"><tspan x="0" y="0" style="fill:#e60012; letter-spacing:-.01em;">V</tspan><tspan x="24.91" y="0" style="fill:#e60012;">ec</tspan><tspan x="73.82" y="0" style="fill:#22ac38; letter-spacing:-.03em;">P</tspan><tspan x="101.14" y="0" style="fill:#22ac38;">os</tspan><tspan x="150.43" y="0" style="fill:#0b318f;">Lib</tspan></text></g></svg>