<?xml version="1.0" encoding="UTF-8"?><svg xmlns="http://www.w3.org/2000/svg" viewBox="0 0 500 500"><g id="P"><path d="M205.61,396.83V88.88h101.56c21.19,0,40.51,3.1,57.95,9.3,17.44,6.2,31.4,16.61,41.86,31.21,10.47,14.61,15.7,34.59,15.7,59.94s-5.23,44.16-15.7,59.73c-10.47,15.57-24.36,27.08-41.67,34.52-17.31,7.44-36.18,11.16-56.59,11.16h-33.72v102.1h-69.38ZM275,236.45h30.23c16.8,0,29.33-4.06,37.6-12.19,8.27-8.13,12.4-19.77,12.4-34.93s-4.46-26.25-13.37-32.45c-8.91-6.2-21.77-9.3-38.57-9.3h-28.3v88.87Z" style="fill:#8fc31f;"/></g><g id="V"><path d="M323.36,217.41l16.87-61.6-.22-.04.02-.08c-8.81-5.41-21.06-8.11-36.74-8.11h-6.18v.03s-.14-.03-.14-.03l-27.52,116.81c-4.68,16.98-7.79,30.42-10.6,43.46-2.82,13.05-6.03,26.71-9.65,41h-1.51c-3.42-14.29-6.48-27.95-9.19-41-2.71-13.04-5.88-26.48-9.49-40.32l-29.24-122.83h-47.02l68.12,252.13h53.35l44.19-161.36s.05,0,.07,0l4.88-18.05Z" style="fill:#e60012;"/></g></svg>